<?xml version="1.0" encoding="UTF-8"?>
<svg width="58px" height="58px" viewBox="0 0 58 58" version="1.1" xmlns="http://www.w3.org/2000/svg" xmlns:xlink="http://www.w3.org/1999/xlink">
    <!-- Generator: Sketch 52.2 (67145) - http://www.bohemiancoding.com/sketch -->
    <title>1388247</title>
    <desc>Created with Sketch.</desc>
    <g id="icons-etc" stroke="none" stroke-width="1" fill="none" fill-rule="evenodd">
        <g id="Artboard" transform="translate(-32.000000, -112.000000)">
            <g id="1388247" transform="translate(32.000000, 112.000000)">
                <g id="1388246">
                    <path d="M29,8.19 C17.5069544,8.19 8.19,17.5069544 8.19,29 C8.19,40.4930456 17.5069544,49.81 29,49.81 C40.4930456,49.81 49.81,40.4930456 49.81,29 C49.793477,17.5138054 40.4861946,8.20652296 29,8.19 Z M29,29.71 L27.19,32.23 C26.12,33.71 25.03,34.46 23.94,34.46 C23.7135558,34.4614951 23.4880225,34.4311995 23.27,34.37 C22.4423187,34.1929015 21.7355948,33.6582814 21.34,32.91 C21.0598515,32.261429 20.9831374,31.5431061 21.12,30.85 L21.26,30.02 L20.46,29.75 C19.4364379,29.2967285 18.7315971,28.3328111 18.61,27.22 C18.4036063,26.6175592 18.4964443,25.952839 18.86,25.43 C19.41,24.71 20.62,24.34 22.45,24.34 C23.1754838,24.3431832 23.9001216,24.3899341 24.62,24.48 L26.45,24.7 L25.64,23 C24.51,20.68 24.04,18.72 24.36,17.63 C24.4777956,17.1678708 24.7920693,16.7805102 25.22,16.57 C25.6468109,16.3470657 26.1186767,16.2239702 26.6,16.21 C27.2348669,16.2123048 27.8386548,16.4851006 28.26,16.96 L28.99,17.73 L29.72,16.95 C30.143093,16.4635224 30.7552834,16.1829351 31.4,16.18 C31.881423,16.1932713 32.3534435,16.3164071 32.78,16.54 C33.2079307,16.7505102 33.5222044,17.1378708 33.64,17.6 C33.96,18.7 33.49,20.66 32.36,22.97 L31.55,24.62 L33.38,24.4 C34.1032305,24.3099648 34.8311938,24.2632148 35.56,24.26 C37.39,24.26 38.56,24.63 39.15,25.35 C39.5227026,25.9076361 39.6080845,26.6092522 39.38,27.24 C39.2471259,28.3232011 38.5509699,29.2552133 37.55,29.69 L36.75,29.96 L36.88,30.79 C37.001453,31.464786 36.9214575,32.1603987 36.65,32.79 C36.2555767,33.54119 35.5489919,34.079366 34.72,34.26 C34.5018725,34.3206897 34.2764109,34.3509756 34.05,34.35 C32.96,34.35 31.87,33.6 30.81,32.12 L29,29.7 L29,29.71 Z M28,39.39 C27.835047,39.5752571 27.6543731,39.7458936 27.46,39.9 C27.6543404,39.7458558 27.8350112,39.5752223 28,39.39 L28.22,39.12 L28,39.39 Z" id="Shape" fill="#FECF37" fill-rule="nonzero"></path>
                    <path d="M29,1.75 C13.9502406,1.75 1.75,13.9502406 1.75,29 C1.75,44.0497594 13.9502406,56.25 29,56.25 C44.0497594,56.25 56.25,44.0497594 56.25,29 C56.2334663,13.9570944 44.0429056,1.76653371 29,1.75 Z M29,49.81 C17.5069544,49.81 8.19,40.4930456 8.19,29 C8.19,17.5069544 17.5069544,8.19 29,8.19 C40.4930456,8.19 49.81,17.5069544 49.81,29 C49.793477,40.4861946 40.4861946,49.793477 29,49.81 Z" id="Shape" fill="#DE8A3C" fill-rule="nonzero"></path>
                    <path d="M35.56,24.29 C34.1648007,24.3133031 32.7750736,24.4706939 31.41,24.76 C31.53,24.56 34.33,19.96 33.65,17.63 C33.533448,17.1672471 33.2187973,16.7794219 32.79,16.57 C32.3605596,16.3445916 31.8848693,16.2213912 31.4,16.21 C30.2645066,16.3189047 29.3118805,17.1127598 29,18.21 C28.7034231,17.1028924 27.7424393,16.3020727 26.6,16.21 C26.118577,16.2232713 25.6465565,16.3464071 25.22,16.57 C24.7920693,16.7805102 24.4777956,17.1678708 24.36,17.63 C23.68,19.96 26.48,24.57 26.62,24.77 C25.248716,24.4759941 23.8522203,24.3152464 22.45,24.29 C20.62,24.29 19.45,24.66 18.86,25.38 C18.4894086,25.9272101 18.4038646,26.6190011 18.63,27.24 C18.7325317,28.6940746 19.9227999,29.8324038 21.38,29.87 C21.0078319,30.8353727 21.0078319,31.9046273 21.38,32.87 C21.7767328,33.6112188 22.4785155,34.141211 23.3,34.32 C23.5175689,34.3844523 23.7430931,34.4181127 23.97,34.42 C26.75,34.42 28.74,29.5 28.97,28.81 L28.97,28.75 C29.29,29.58 31.23,34.34 33.97,34.34 C34.1963944,34.3407223 34.4218216,34.310441 34.64,34.25 C35.4665108,34.0703494 36.1722678,33.5364607 36.57,32.79 C36.9274883,31.8219495 36.9274883,30.7580505 36.57,29.79 C38.0214075,29.7427858 39.2033886,28.6082565 39.31,27.16 C39.5365796,26.5444207 39.4468984,25.8568647 39.07,25.32 C38.59,24.66 37.38,24.29 35.56,24.29 Z" id="Path" fill="#DE8A3C"></path>
                    <path d="M35.56,23.29 C34.7910372,23.2943487 34.023014,23.3444372 33.26,23.44 C34.12,21.69 35.11,19.11 34.61,17.35 C34.4138273,16.6171784 33.9107694,16.0047601 33.23,15.67 C32.6635415,15.3778447 32.0372765,15.2204229 31.4,15.21 C30.4819543,15.2180408 29.6101355,15.6139918 29,16.3 C28.3901195,15.6219141 27.5220001,15.2332581 26.61,15.23 C25.9761617,15.2423082 25.3535683,15.399667 24.79,15.69 C24.1092306,16.0247601 23.6061727,16.6371784 23.41,17.37 C22.9,19.12 23.9,21.71 24.76,23.46 C24.0002976,23.364832 23.2356253,23.3147443 22.47,23.31 C20.28,23.31 18.85,23.79 18.09,24.79 C17.5373705,25.5563386 17.3780435,26.538238 17.66,27.44 C17.8394066,28.8930581 18.7983394,30.1319992 20.16,30.67 C19.9877559,31.5674639 20.0959917,32.4961971 20.47,33.33 C20.9854233,34.3425707 21.9228035,35.074899 23.03,35.33 C23.3358232,35.4165503 23.6521656,35.4602998 23.97,35.46 C25.66,35.46 27.02,34.21 28.03,32.82 L28.03,36.24 C28.0271804,36.2832875 28.0271804,36.3267125 28.03,36.37 C28.083091,37.2311319 27.7957935,38.0786595 27.23,38.73 C26.31,39.73 24.64,40.28 22.29,40.24 C21.7377153,40.24 21.29,40.6877153 21.29,41.24 C21.29,41.7922847 21.7377153,42.24 22.29,42.24 L22.55,42.24 C25.38,42.24 27.46,41.51 28.75,40.06 C29.6643147,38.9833842 30.1139002,37.5878706 30,36.18 L30,32.79 C31,34.19 32.37,35.43 34.05,35.43 C34.3711568,35.430838 34.6908751,35.3870871 35,35.3 C36.1071965,35.044899 37.0445767,34.3125707 37.56,33.3 C37.9305088,32.4723065 38.0386915,31.5510087 37.87,30.66 C39.2254586,30.1051038 40.1769769,28.8631622 40.36,27.41 C40.6419565,26.508238 40.4826295,25.5263386 39.93,24.76 C39.17,23.78 37.74,23.29 35.56,23.29 Z M38.41,27 C38.4071804,27.0432875 38.4071804,27.0867125 38.41,27.13 C38.41,27.2 38.17,28.89 36.66,28.89 C36.3206404,28.8721809 35.9985812,29.0408785 35.82,29.33 C35.6313247,29.6068051 35.5937831,29.9596958 35.72,30.27 C36.0081607,30.974843 36.0294924,31.7605601 35.78,32.48 C35.5034523,32.9651329 35.0284484,33.3049434 34.48,33.41 C34.3500683,33.4483356 34.2154611,33.4685267 34.08,33.47 C32.43,33.47 30.72,30.47 29.97,28.47 L29.97,28.39 C29.9300305,28.310308 29.8795834,28.2363189 29.82,28.17 L29.66,28 C29.5993013,27.9453402 29.5321342,27.8983233 29.46,27.86 L29.36,27.86 C29.2484753,27.815866 29.1299205,27.792155 29.01,27.79 C28.8900795,27.792155 28.7715247,27.815866 28.66,27.86 L28.56,27.86 C28.4878658,27.8983233 28.4206987,27.9453402 28.36,28 L28.28,28.08 C28.2204166,28.1463189 28.1699695,28.220308 28.13,28.3 L28.13,28.38 C27.41,30.32 25.65,33.38 24.01,33.38 C23.8745079,33.3789186 23.7398465,33.3587193 23.61,33.32 C23.0615516,33.2149434 22.5865477,32.8751329 22.31,32.39 C22.0605076,31.6705601 22.0818393,30.884843 22.37,30.18 C22.4904247,29.8664003 22.4453466,29.5132885 22.25,29.24 C22.0518268,28.9623421 21.731121,28.79826 21.39,28.8 C19.97,28.8 19.7,27.22 19.68,27.04 C19.6828196,26.9967125 19.6828196,26.9532875 19.68,26.91 C19.5,26.24 19.68,26.01 19.74,25.91 C19.8,25.81 20.49,25.21 22.54,25.21 C23.8612969,25.2351734 25.1772118,25.3858507 26.47,25.66 C26.8622935,25.7477808 27.2690151,25.5921209 27.5024633,25.2648571 C27.7359114,24.9375933 27.7506984,24.5023534 27.54,24.16 C26.54,22.46 25,19.24 25.4,17.83 C25.437521,17.6378847 25.5635632,17.4747712 25.74,17.39 C26.0296771,17.2334561 26.3510522,17.1445651 26.68,17.13 C27.63,17.13 28.09,18.3 28.14,18.43 C28.2864639,18.8220069 28.6615275,19.0813593 29.08,19.08 C29.5036174,19.0783124 29.8802085,18.8098911 30.02,18.41 C30.02,18.36 30.49,17.1 31.48,17.1 C31.8090026,17.1142188 32.1304539,17.2031309 32.42,17.36 C32.5964368,17.4447712 32.722479,17.6078847 32.76,17.8 C33.17,19.21 31.67,22.43 30.63,24.13 C30.4193016,24.4723534 30.4340886,24.9075933 30.6675367,25.2348571 C30.9009849,25.5621209 31.3077065,25.7177808 31.7,25.63 C32.9926412,25.3549498 34.3086426,25.2042626 35.63,25.18 C37.63,25.18 38.26,25.67 38.42,25.88 C38.58,26.09 38.59,26.3 38.41,27 Z" id="Shape" fill="#353844" fill-rule="nonzero"></path>
                    <path d="M29,0.75 C13.3979558,0.75 0.75,13.3979558 0.75,29 C0.75,44.6020442 13.3979558,57.25 29,57.25 C44.6020442,57.25 57.25,44.6020442 57.25,29 C57.2334651,13.4048099 44.5951901,0.766534939 29,0.75 Z M29,55.25 C14.5025253,55.25 2.75,43.4974747 2.75,29 C2.75,14.5025253 14.5025253,2.75 29,2.75 C43.4974747,2.75 55.25,14.5025253 55.25,29 C55.2334676,43.4906212 43.4906212,55.2334676 29,55.25 Z" id="Shape" fill="#353844" fill-rule="nonzero"></path>
                    <path d="M29,7.19 C16.9546696,7.19 7.19,16.9546696 7.19,29 C7.19,41.0453304 16.9546696,50.81 29,50.81 C41.0453304,50.81 50.81,41.0453304 50.81,29 C50.793475,16.9615211 41.0384789,7.20652505 29,7.19 Z M29,48.82 C18.0605412,48.8199986 9.19184261,39.9527903 9.1900028,29.0133317 C9.188163,18.073873 18.0538785,9.20368212 28.9933367,9.20000112 C39.9327949,9.19632013 48.8044778,18.0605426 48.81,29 C48.7989756,39.9361912 39.9361912,48.7989756 29,48.81 L29,48.82 Z" id="Shape" fill="#353844" fill-rule="nonzero"></path>
                </g>
            </g>
        </g>
    </g>
</svg>