<?xml version="1.0" encoding="UTF-8"?>
<svg width="70px" height="82px" viewBox="0 0 70 82" version="1.1" xmlns="http://www.w3.org/2000/svg" xmlns:xlink="http://www.w3.org/1999/xlink">
    <!-- Generator: Sketch 52.2 (67145) - http://www.bohemiancoding.com/sketch -->
    <title>22834</title>
    <desc>Created with Sketch.</desc>
    <defs>
        <linearGradient x1="0.00199004975%" y1="50.0004168%" x2="91.958209%" y2="50.0004168%" id="linearGradient-1">
            <stop stop-color="#000092" offset="0%"></stop>
            <stop stop-color="#FF00F3" offset="100%"></stop>
        </linearGradient>
    </defs>
    <g id="Auction-flow" stroke="none" stroke-width="1" fill="none" fill-rule="evenodd">
        <g id="Auction-Won" transform="translate(-153.000000, -101.000000)">
            <g id="22834" transform="translate(153.000000, 101.000000)">
                <path d="M28.9054726,0.0334380038 C28.3054953,0.139714788 28.0978105,0.364294415 27.8606965,0.557830034 C27.6235741,0.7508063 27.3884856,1.02041372 27.1641791,1.25701941 C26.7155634,1.73023077 26.2389839,2.26804724 25.7711443,2.8301955 C25.3033047,3.39234375 24.9160354,3.91100243 24.5522388,4.31597291 C24.4031284,4.48098161 24.3038328,4.65591879 24.2039801,4.75296627 C24.0672677,4.75296627 23.8616892,4.70192545 23.5945274,4.6655676 C23.0602038,4.5928519 22.3065914,4.52922567 21.5920398,4.40337158 C20.8774882,4.2775175 20.23409,4.12369584 19.5895522,4.0537769 C19.2672848,4.01741905 18.9373027,3.95798795 18.6318408,3.96637823 C18.3263789,3.96637823 18.0245595,4.00832959 17.5,4.31597291 C16.9750259,4.62305689 16.8733932,4.83938608 16.7164179,5.10256096 C16.5594424,5.36545616 16.4118509,5.67673527 16.2810945,5.97654767 C16.0195829,6.57645216 15.7473187,7.29591802 15.4975124,7.98671712 C15.2477051,8.67723655 15.0063345,9.31503709 14.800995,9.82208923 C14.7160255,10.031846 14.6883459,10.2197881 14.6268657,10.3464813 L14.539801,10.3464813 C14.4066018,10.3856359 14.2461197,10.470937 14.0174129,10.5212786 C13.4903928,10.6387424 12.8163118,10.7422224 12.10199,10.8708733 C11.3876683,10.9995241 10.6421099,11.1506889 10.0124378,11.3078666 C9.69760191,11.3861759 9.42654742,11.4581924 9.14179104,11.5700627 C8.85703467,11.681933 8.57065986,11.7153542 8.1840796,12.1818534 C7.79760048,12.6486322 7.80731912,12.929147 7.74875622,13.2306374 C7.69019303,13.5318482 7.68339502,13.8648022 7.66169154,14.1920228 C7.61828458,14.8461844 7.57645174,15.553764 7.57462687,16.2895909 C7.57280199,17.0254178 7.59655323,17.7515959 7.57462687,18.2997604 C7.56364975,18.5738426 7.50631801,18.8591119 7.48756219,18.9989497 C7.37608597,19.0800557 7.23660418,19.1408852 7.05223881,19.2611458 C6.59571288,19.5542459 5.93882034,19.8525201 5.31094527,20.2225311 C4.68307021,20.5922625 4.10800565,20.9926183 3.56965174,21.3587139 C3.30047562,21.5405031 3.01525954,21.7671803 2.78606965,21.9705046 C2.5568792,22.1746679 2.29374941,22.2753511 2.08955224,22.8444913 C1.88554507,23.4127924 1.95591841,23.6775055 2.00248756,23.980674 C2.04905672,24.2838425 2.17373891,24.6271445 2.26368159,24.9420594 C2.44356697,25.5713299 2.71380402,26.2608704 2.960199,26.9522289 C3.20659343,27.6435873 3.40551268,28.3531247 3.56965174,28.8749996 C3.64088318,29.101537 3.71109771,29.2612318 3.74378109,29.3993917 C3.66672955,29.5196522 3.54150965,29.6453665 3.39552239,29.836385 C3.06546312,30.2701621 2.64126062,30.8443364 2.17661692,31.4095611 C1.71197321,31.9745061 1.25213604,32.5401503 0.870646766,33.0701359 C0.679901294,33.3358278 0.494458826,33.5871165 0.348258706,33.8567239 C0.202059701,34.1252126 0,34.3899257 0,34.9929067 C0,35.5958876 0.202059701,35.859482 0.348258706,36.1290894 C0.494457711,36.3975781 0.679902129,36.6505448 0.870646766,36.9156774 C1.25213604,37.445663 1.71197349,38.0110275 2.17661692,38.5762522 C2.64126034,39.1411972 3.06546312,39.7153715 3.39552239,40.1494283 C3.54150965,40.3424045 3.66672955,40.4675594 3.74378109,40.5864216 C3.75383881,40.6143892 3.73525572,40.6598365 3.74378109,40.6738203 C3.7103204,40.8052679 3.63004259,40.9200748 3.56965174,41.1108137 C3.40551323,41.6326886 3.20659399,42.342226 2.960199,43.0335844 C2.71380458,43.7249429 2.44356697,44.4142038 2.26368159,45.0437539 C2.17373891,45.3583891 2.04905672,45.7019708 2.00248756,46.0051393 C1.95591841,46.3083078 1.88554507,46.5727412 2.08955224,47.141322 C2.29374886,47.7101825 2.55687976,47.8119845 2.78606965,48.0153087 C3.0152601,48.219472 3.30047479,48.4439118 3.56965174,48.6270994 C4.10800565,48.993195 4.68307021,49.3932711 5.31094527,49.7632822 C5.93882034,50.1330135 6.59571288,50.4315674 7.05223881,50.7246675 C7.23660418,50.8421314 7.37608486,50.9029608 7.48756219,50.9868636 C7.50631244,51.1267014 7.56365811,51.4119707 7.57462687,51.6860529 C7.59655323,52.2339377 7.57280199,52.9603955 7.57462687,53.6962224 C7.57645174,54.4320493 7.61828458,55.1396289 7.66169154,55.7937905 C7.68339502,56.1210111 7.69019303,56.4536854 7.74875622,56.7551759 C7.8073194,57.0563867 7.79759881,57.3369014 8.1840796,57.8039599 C8.57065958,58.2710184 8.85703467,58.30416 9.14179104,58.4157506 C9.42654742,58.5276209 9.69760163,58.5996375 10.0124378,58.6779467 C10.6421099,58.8345651 11.387668,58.9857298 12.10199,59.11494 C12.8163121,59.2435909 13.4903925,59.3470709 14.0174129,59.4645347 C14.2461186,59.5148763 14.4066018,59.6001774 14.539801,59.6393321 L14.6268657,59.6393321 C14.6883459,59.7651861 14.7160255,59.9539673 14.800995,60.1637241 C15.0063339,60.6707762 15.2477062,61.3082971 15.4975124,61.9990962 C15.7473198,62.6896156 16.0195818,63.4093611 16.2810945,64.0092656 L10.3606965,74.2349102 C10.104447,74.7223762 10.1573155,75.3154661 10.4957099,75.7495176 C10.8341042,76.1835691 11.3949058,76.3776213 11.9278607,76.2450797 L18.1965174,74.5845049 L19.8507463,80.8772093 C19.9680582,81.4626653 20.4427554,81.9087517 21.0324371,81.9876775 C21.6221187,82.0666034 22.1966644,81.7609527 22.4626866,81.2268039 L28.9054726,69.9523753 C29.5055363,70.0586521 29.7484092,69.8754645 30.0373134,69.777578 C30.3262177,69.6768947 30.6171447,69.5734147 30.9079602,69.4279833 C31.489594,69.1385189 32.1072935,68.7452948 32.7363184,68.3791992 C33.3653433,68.0131037 33.9998511,67.6717594 34.4776119,67.4178138 C34.6876537,67.3059435 34.8722615,67.211553 35,67.1556178 C35.1279363,67.211553 35.3120872,67.3059435 35.5223881,67.4178138 C36.00072,67.6723188 36.6339769,68.0131037 37.2636816,68.3791992 C37.8933863,68.7452948 38.509963,69.1385189 39.0920398,69.4279833 C39.3830782,69.5734147 39.6737294,69.6768947 39.9626866,69.777578 C40.2516438,69.8782612 40.4943327,70.0611692 41.0945274,69.9523753 C41.2835622,69.9188897 41.4055112,69.8298801 41.5298507,69.777578 L48.0597015,81.2268039 C48.3257236,81.7609527 48.9002693,82.0666034 49.489951,81.9876775 C50.0796327,81.9087517 50.5543298,81.4626653 50.6716418,80.8772093 L52.3258706,74.5845049 L58.5945274,76.2450797 C59.1274823,76.3776213 59.6882839,76.1835691 60.0266782,75.7495176 C60.3650725,75.3154661 60.4179411,74.7223762 60.1616915,74.2349102 L53.9800995,63.3974749 C54.1634173,62.9411923 54.3296704,62.4767991 54.5024876,61.9990962 C54.7522866,61.3082971 54.9936661,60.6707762 55.199005,60.1637241 C55.2839801,59.9539673 55.3116458,59.7660252 55.3731343,59.6393321 L55.460199,59.6393321 C55.593401,59.6001774 55.7538814,59.5148763 55.9825871,59.4645347 C56.5096084,59.3470709 57.1836868,59.2435909 57.89801,59.11494 C58.6123331,58.9862892 59.3578909,58.8348448 59.9875622,58.6779467 C60.3023992,58.5996375 60.5734531,58.5276209 60.858209,58.4157506 C61.1429648,58.3038803 61.4293393,58.2701794 61.8159204,57.8039599 C62.2024012,57.3369014 62.1926806,57.0563867 62.2512438,56.7551759 C62.309807,56.4536854 62.316605,56.1210111 62.3383085,55.7937905 C62.3817154,55.1396289 62.4235622,54.4320493 62.4253731,53.6962224 C62.427198,52.9603955 62.4033632,52.2339377 62.4253731,51.6860529 C62.4362388,51.4119707 62.4936876,51.1264218 62.5124378,50.9868636 C62.623797,50.9057576 62.763602,50.8449281 62.9477612,50.7246675 C63.403799,50.4315674 64.0618575,50.1330135 64.6890547,49.7632822 C65.3162519,49.3932711 65.8925198,48.993195 66.4303483,48.6270994 C66.6992597,48.4453102 66.9849433,48.2183533 67.2139303,48.0153087 C67.4429174,47.8111454 67.706488,47.7093435 67.9104478,47.141322 C68.1144438,46.5727412 67.9570308,46.3083078 67.9104478,46.0051393 C67.8638925,45.7019708 67.8262527,45.3583891 67.7363184,45.0437539 C67.5564219,44.4142038 67.2861954,43.7249429 67.039801,43.0335844 C66.793401,42.342226 66.5944868,41.6326886 66.4303483,41.1108137 C66.3699463,40.9178374 66.2896796,40.8058273 66.2562189,40.6738203 C66.2192478,40.7325522 66.2566117,40.5808281 66.2562189,40.5864216 C66.3333652,40.4661611 66.4582925,40.3401671 66.6044776,40.1494283 C66.9349946,39.7153715 67.3580593,39.1411972 67.8233831,38.5762522 C68.2887069,38.0110275 68.7472967,37.445663 69.1293532,36.9156774 C69.3203662,36.6499855 69.5052999,36.3984171 69.6517413,36.1290894 C69.7981771,35.8606007 70,35.5967266 70,34.9929067 C70,34.3890867 69.7981771,34.1260517 69.6517413,33.8567239 C69.5053055,33.5882352 69.3203801,33.3352685 69.1293532,33.0701359 C68.7472967,32.5401503 68.2887069,31.9745061 67.8233831,31.4095611 C67.3580593,30.8443364 66.9349946,30.2701621 66.6044776,29.836385 C66.4582925,29.6434088 66.3333652,29.5182539 66.2562189,29.3993917 C66.2461891,29.3714241 66.2648557,29.3259768 66.2562189,29.311993 C66.2896796,29.1805454 66.3699463,29.0660182 66.4303483,28.8749996 C66.5944756,28.3531247 66.7934066,27.6435873 67.039801,26.9522289 C67.286201,26.2608704 67.556433,25.5713299 67.7363184,24.9420594 C67.8262527,24.6271445 67.8638925,24.2838425 67.9104478,23.980674 C67.9570308,23.6775055 68.1144438,23.4127924 67.9104478,22.8444913 C67.7064796,22.2761902 67.4429174,22.1735492 67.2139303,21.9705046 C66.9849433,21.7663413 66.6992625,21.5419015 66.4303483,21.3587139 C65.8925198,20.9926183 65.3162519,20.5922625 64.6890547,20.2225311 C64.0618575,19.8525201 63.403799,19.5542459 62.9477612,19.2611458 C62.763602,19.1436819 62.6238054,19.0828525 62.5124378,18.9989497 C62.4937711,18.8591119 62.4363502,18.5735629 62.4253731,18.2997604 C62.4033632,17.7515959 62.427198,17.0254178 62.4253731,16.2895909 C62.4235483,15.553764 62.3817154,14.8461844 62.3383085,14.1920228 C62.3165771,13.8648022 62.309807,13.5318482 62.2512438,13.2306374 C62.1926806,12.929147 62.202404,12.6486322 61.8159204,12.1818534 C61.4293393,11.7145152 61.1429648,11.6816533 60.858209,11.5700627 C60.5734531,11.4581924 60.3023992,11.3861759 59.9875622,11.3078666 C59.3578909,11.1512482 58.6123331,11.0000835 57.89801,10.8708733 C57.1836868,10.7422224 56.5096084,10.6387424 55.9825871,10.5212786 C55.7538786,10.470937 55.5933982,10.3856359 55.460199,10.3464813 L55.3731343,10.3464813 C55.3116458,10.2206272 55.2839801,10.031846 55.199005,9.82208923 C54.9936716,9.31503709 54.7522949,8.67723655 54.5024876,7.98671712 C54.2526886,7.29591802 53.9804171,6.57645216 53.7189055,5.97654767 C53.5881552,5.67673527 53.4405493,5.36573584 53.2835821,5.10256096 C53.1266149,4.83966575 53.0249791,4.62305689 52.5,4.31597291 C51.9754416,4.00860926 51.6736211,3.97253109 51.3681592,3.96637823 C51.0626973,3.96637823 50.7327152,4.02021581 50.4104478,4.0537769 C49.76591,4.12369584 49.0354472,4.2775175 48.3208955,4.40337158 C47.6063439,4.52922567 46.9397962,4.5928519 46.4054726,4.6655676 C46.1383164,4.70192545 45.9327379,4.74737276 45.7960199,4.75296627 C45.6961672,4.65507976 45.5968716,4.48154096 45.4477612,4.31597291 C45.0839646,3.91100243 44.6096306,3.39234375 44.141791,2.8301955 C43.6739514,2.26804724 43.1973719,1.73023077 42.7487562,1.25701941 C42.5244498,1.01929502 42.3764175,0.751365652 42.1393035,0.557830034 C41.9021811,0.364853767 41.6945047,0.140833491 41.0945274,0.0334380038 C40.49433,-0.0728387809 40.2516438,0.110348835 39.9626866,0.208235347 C39.6737294,0.308918617 39.3830782,0.412398644 39.0920398,0.557830034 C38.509963,0.847294434 37.8933863,1.24051854 37.2636816,1.60661409 C36.6339769,1.97270965 36.00072,2.31377422 35.5223881,2.56799948 C35.3120955,2.67986978 35.1279447,2.77426035 35,2.8301955 C34.8722587,2.77426035 34.6876621,2.67986978 34.4776119,2.56799948 C33.9998511,2.31349455 33.3653433,1.97270965 32.7363184,1.60661409 C32.1072935,1.24051854 31.489594,0.847294434 30.9079602,0.557830034 C30.6171419,0.412398644 30.3262177,0.308918617 30.0373134,0.208235347 C29.7484092,0.107552077 29.5055391,-0.0753558626 28.9054726,0.0334380038 Z M29.4278607,3.00499284 C29.5135602,3.04414744 29.5820975,3.03925312 29.6890547,3.09239151 C30.1473938,3.32172562 30.7226866,3.60503716 31.3432836,3.96637823 C31.9638806,4.32743962 32.606234,4.71423118 33.1716418,5.01516229 C33.4543471,5.16618719 33.7772498,5.34224307 34.0422886,5.45215564 C34.3073274,5.56122919 34.4847638,5.62695299 35,5.62695299 C35.5152362,5.62695299 35.6926058,5.56122919 35.9577114,5.45215564 C36.222806,5.3430821 36.54543,5.16534816 36.8283582,5.01516229 C37.3942173,4.71451086 38.0354396,4.32743962 38.6567164,3.96637823 C39.2779932,3.60503716 39.8520267,3.32032725 40.3109453,3.09239151 C40.4180139,3.03925312 40.4863284,3.04135069 40.5721393,3.00499284 C40.6371383,3.06931826 40.6684816,3.09868421 40.7462687,3.17979018 C41.1006846,3.55371666 41.5906066,4.11069091 42.0522388,4.6655676 C42.513871,5.22016461 43.015528,5.76049816 43.4452736,6.23874369 C43.6601353,6.47646808 43.843233,6.65588007 44.0547264,6.85053439 C44.2662169,7.04630741 44.3556442,7.28417164 44.8383085,7.46232509 C45.3208529,7.64131757 45.5966794,7.56091079 45.8830846,7.54972376 C46.1694898,7.54972376 46.4372533,7.50427645 46.7537313,7.46232509 C47.3866874,7.37562561 48.1383773,7.23578773 48.8432836,7.11273041 C49.5481899,6.98967308 50.2514579,6.90646954 50.7587065,6.85053439 C50.8889552,6.82256682 50.9208557,6.76872923 51.0199005,6.76313572 C51.0726965,6.86381899 51.1250189,6.95331523 51.1940299,7.11273041 C51.4010905,7.58761983 51.6440247,8.26653271 51.8905473,8.94810251 C52.1370587,9.62967231 52.3448605,10.2726469 52.5870647,10.8708733 C52.7081751,11.1698467 52.8026229,11.4892364 52.9353234,11.74486 C53.0680239,11.9993649 53.1538627,12.1986339 53.5447761,12.531448 C53.9359514,12.8642622 54.2295196,12.8800639 54.5024876,12.9684414 C54.7754667,13.0579376 55.0609942,13.1607185 55.3731343,13.2306374 C55.9974117,13.3676785 56.6709246,13.4515813 57.3756219,13.5802321 C58.0803192,13.7088829 58.7953417,13.8936088 59.2910448,14.0172255 C59.4149692,14.0479898 59.4585711,14.0766566 59.5522388,14.1046241 C59.5617114,14.1941204 59.544995,14.2549499 59.5522388,14.3668201 C59.5866468,14.885339 59.6374925,15.5635527 59.6393035,16.2895909 C59.6411061,17.0156292 59.613393,17.8285067 59.6393035,18.4745577 C59.6521194,18.7973035 59.688004,19.0624361 59.7263682,19.3485444 C59.7647323,19.634373 59.7344478,19.8652454 59.9875622,20.3099298 C60.2404537,20.7540549 60.4581767,20.9189238 60.6840796,21.0965179 C60.9099741,21.2727136 61.1979897,21.4475109 61.4676617,21.6209099 C62.0070058,21.9671485 62.590158,22.3047171 63.2089552,22.669694 C63.8277524,23.0343911 64.4388573,23.4292933 64.8631841,23.718478 C64.9692776,23.7911937 65.0457274,23.8345434 65.1243781,23.8932754 C65.1015323,23.9911619 65.0729194,24.0296173 65.0373134,24.1554714 C64.8948617,24.6538536 64.6710149,25.3084346 64.4278607,25.9908435 C64.1847204,26.6729726 63.9249584,27.3854466 63.7313433,28.0010129 C63.6345274,28.3089359 63.5305512,28.5930865 63.4701493,28.8749996 C63.4097473,29.1569128 63.3827224,29.4209267 63.4701493,29.9237837 C63.5576597,30.4269204 63.6661771,30.5533338 63.818408,30.7977704 C63.9706388,31.0410883 64.1456764,31.3281755 64.340796,31.5843585 C64.7310352,32.0964448 65.2746671,32.6872598 65.7338308,33.2449332 C66.1929946,33.8026067 66.5634917,34.311197 66.8656716,34.7307106 C66.9412299,34.8341907 66.9856398,34.9090039 67.039801,34.9929067 C66.9856398,35.0768094 66.9412299,35.1488259 66.8656716,35.2551027 C66.5634917,35.6743366 66.1929946,36.1832066 65.7338308,36.7408801 C65.2746671,37.2985535 64.7310352,37.8890889 64.340796,38.4014548 C64.1456876,38.6559598 63.9706444,38.9436063 63.818408,39.1880429 C63.6661771,39.4313608 63.5576597,39.5588929 63.4701493,40.0620296 C63.3827224,40.5648866 63.4097473,40.8289005 63.4701493,41.1108137 C63.5305512,41.3927268 63.6345274,41.6768774 63.7313433,41.9848004 C63.9249473,42.6003667 64.1847065,43.312561 64.4278607,43.9949698 C64.6710289,44.677099 64.8948561,45.3319597 65.0373134,45.8303419 C65.0729194,45.956196 65.1015602,45.9946514 65.1243781,46.0925379 C65.0457274,46.1512699 64.9692776,46.1974164 64.8631841,46.2673353 C64.4388573,46.5562403 63.8277524,46.9511425 63.2089552,47.3161194 C62.590158,47.6808165 62.0070058,48.0183852 61.4676617,48.3649034 C61.197998,48.5383024 60.9099825,48.7117013 60.6840796,48.8892954 C60.4581851,49.0654912 60.2404537,49.2317584 59.9875622,49.6758835 C59.734392,50.1205679 59.7647323,50.3511606 59.7263682,50.6372689 C59.688004,50.9230975 59.6522308,51.1882301 59.6393035,51.5112556 C59.613393,52.1570269 59.6411033,52.9701841 59.6393035,53.6962224 C59.6375037,54.4222606 59.5866468,55.1004743 59.5522388,55.6189932 C59.544995,55.7308635 59.5617114,55.7916929 59.5522388,55.8811892 C59.4585711,55.9091567 59.4149692,55.9378235 59.2910448,55.9685878 C58.7953417,56.0916452 58.0803192,56.2780491 57.3756219,56.4055812 C56.6709246,56.534232 55.9974117,56.6181348 55.3731343,56.7551759 C55.0609942,56.8250948 54.7754555,56.9278757 54.5024876,57.0173719 C54.2295085,57.1068681 53.9359514,57.1207121 53.5447761,57.4543653 C53.1538571,57.7868997 53.06801,57.9853297 52.9353234,58.2409533 C52.8026229,58.4954582 52.7081751,58.8159666 52.5870647,59.11494 C52.3448716,59.7131664 52.1370699,60.356141 51.8905473,61.0377108 C51.6440358,61.7192806 51.4010878,62.3979138 51.1940299,62.8730829 C51.1250189,63.0324981 51.0726965,63.1219943 51.0199005,63.2226776 C50.9208557,63.2226776 50.8889552,63.1492627 50.7587065,63.1352789 C50.2514579,63.0793438 49.5481899,62.998937 48.8432836,62.8730829 C48.1383773,62.7500256 47.3866874,62.6101877 46.7537313,62.5234882 C46.4372533,62.4815369 46.1694898,62.4472766 45.8830846,62.4360895 C45.5966794,62.4360895 45.3208529,62.3472925 44.8383085,62.5234882 C44.3556414,62.7024807 44.2662197,62.9406246 44.0547264,63.1352789 C43.8432358,63.3310519 43.6601465,63.5079469 43.4452736,63.7470696 C43.015528,64.2250355 42.513871,64.765369 42.0522388,65.3202457 C41.5906066,65.8748427 41.1006846,66.4320966 40.7462687,66.8060231 C40.6684816,66.8871291 40.6371383,66.9192918 40.5721393,66.9808205 C40.4863284,66.9416659 40.4180139,66.9465602 40.3109453,66.8934218 C39.8520267,66.6640877 39.2779932,66.3804965 38.6567164,66.0194351 C38.0354396,65.658094 37.3942173,65.2710228 36.8283582,64.970651 C36.54543,64.8196261 36.2228171,64.6435702 35.9577114,64.5336577 C35.6926169,64.4245841 35.5152362,64.3588603 35,64.3588603 C34.4847638,64.3588603 34.3073274,64.4245841 34.0422886,64.5336577 C33.7772498,64.6427312 33.4543471,64.8201855 33.1716418,64.970651 C32.606234,65.2713024 31.9638806,65.658094 31.3432836,66.0194351 C30.7226866,66.3804965 30.1473966,66.6652064 29.6890547,66.8934218 C29.5820975,66.9465602 29.5135602,66.9444626 29.4278607,66.9808205 C29.3628617,66.916495 29.3315184,66.8871291 29.2537313,66.8060231 C28.8993154,66.4320966 28.4093934,65.8748427 27.9477612,65.3202457 C27.486129,64.765369 26.984472,64.2250355 26.5547264,63.7470696 C26.3398647,63.5093452 26.156767,63.3299332 25.9452736,63.1352789 C25.7337831,62.9395059 25.5572911,62.701362 25.0746269,62.5234882 C24.5920824,62.3444957 24.4033206,62.4249025 24.1169154,62.4360895 C23.8305102,62.4360895 23.5627467,62.4815369 23.2462687,62.5234882 C22.6133126,62.6101877 21.8616227,62.7500256 21.1567164,62.8730829 C20.4518101,62.9961402 19.7485421,63.0793438 19.2412935,63.1352789 C19.1110448,63.1632465 19.0791443,63.2170841 18.9800995,63.2226776 C18.9273035,63.1219943 18.8749811,63.0324981 18.8059701,62.8730829 C18.5989095,62.3979138 18.3559753,61.7192806 18.1094527,61.0377108 C17.8629274,60.356141 17.6551395,59.7131664 17.4129353,59.11494 C17.2918332,58.8159666 17.1973632,58.4965769 17.0646766,58.2409533 C16.93199,57.9864484 16.8461429,57.7868997 16.4552239,57.4543653 C16.0640494,57.1212714 15.7704812,57.1057494 15.4975124,57.0173719 C15.2245445,56.9278757 14.9390044,56.8250948 14.6268657,56.7551759 C14.0025883,56.6181348 13.3290754,56.534232 12.6243781,56.4055812 C11.9196808,56.2769304 11.2046591,56.0922045 10.7089552,55.9685878 C10.5478507,55.9294332 10.4671578,55.9147503 10.3606965,55.8811892 C10.3513632,55.7916929 10.3679124,55.7280667 10.3606965,55.6189932 C10.3262858,55.1004743 10.3624974,54.4222606 10.3606965,53.6962224 C10.3588956,52.9701841 10.3865512,52.1570269 10.3606965,51.5112556 C10.3477692,51.1882301 10.3120016,50.9230975 10.2736318,50.6372689 C10.2352621,50.3511606 10.265608,50.1205679 10.0124378,49.6758835 C9.75922308,49.231199 9.54202109,49.0666099 9.3159204,48.8892954 C9.0898197,48.7130997 8.80227558,48.5380227 8.53233831,48.3649034 C7.99246348,48.0183852 7.32346157,47.6808165 6.7039801,47.3161194 C6.08449863,46.9511425 5.56163805,46.5562403 5.13681592,46.2673353 C5.03061095,46.1946196 4.95436458,46.1512699 4.87562189,46.0925379 C4.8984398,45.9946514 4.92707224,45.956196 4.96268657,45.8303419 C5.10514388,45.3319597 5.32898591,44.677099 5.5721393,43.9949698 C5.81529353,43.312561 6.07504215,42.6003667 6.26865672,41.9848004 C6.36546428,41.6768774 6.38238408,41.3927268 6.44278607,41.1108137 C6.50318806,40.8289005 6.61727204,40.5648866 6.52985075,40.0620296 C6.44247124,39.5594523 6.24653477,39.4324795 6.09452736,39.1880429 C5.9425194,38.944725 5.85404219,38.6573582 5.65920398,38.4014548 C5.26952812,37.8890889 4.72465258,37.2985535 4.26616915,36.7408801 C3.80768573,36.1832066 3.34898945,35.6743366 3.04726368,35.2551027 C2.9768597,35.1572162 3.01219264,35.0740126 2.960199,34.9929067 C3.01219264,34.9145974 2.9768597,34.8285972 3.04726368,34.7307106 C3.34898945,34.311197 3.80768573,33.8026067 4.26616915,33.2449332 C4.72465258,32.6872598 5.2695284,32.0964448 5.65920398,31.5843585 C5.85404219,31.3270568 5.94251996,31.042207 6.09452736,30.7977704 C6.24653532,30.5544525 6.44247069,30.426361 6.52985075,29.9237837 C6.61727204,29.4209267 6.50318806,29.1569128 6.44278607,28.8749996 C6.38238408,28.5930865 6.36546428,28.3089359 6.26865672,28.0010129 C6.07504159,27.3854466 5.8152927,26.6729726 5.5721393,25.9908435 C5.32898507,25.3084346 5.10514472,24.6538536 4.96268657,24.1554714 C4.92707224,24.0296173 4.89844537,23.9911619 4.87562189,23.8932754 C4.95436458,23.8345434 5.03061095,23.788397 5.13681592,23.718478 C5.56163805,23.4292933 6.08449863,23.0343911 6.7039801,22.669694 C7.32346157,22.3047171 7.99246348,21.9671485 8.53233831,21.6209099 C8.80227502,21.4475109 9.0898197,21.2738323 9.3159204,21.0965179 C9.54202109,20.9203221 9.7592242,20.7546143 10.0124378,20.3099298 C10.2655996,19.8652454 10.2352621,19.634373 10.2736318,19.3485444 C10.3120016,19.0624361 10.3477692,18.7973035 10.3606965,18.4745577 C10.3865512,17.8285067 10.3588956,17.0156292 10.3606965,16.2895909 C10.3624974,15.5635527 10.3262858,14.885339 10.3606965,14.3668201 C10.3679124,14.2577466 10.3513632,14.1941204 10.3606965,14.1046241 C10.4671578,14.071063 10.5478507,14.0563801 10.7089552,14.0172255 C11.2046591,13.8941681 11.9196805,13.7074846 12.6243781,13.5802321 C13.3290757,13.4515813 14.002588,13.3676785 14.6268657,13.2306374 C14.9390044,13.1607185 15.2245436,13.0579376 15.4975124,12.9684414 C15.7704804,12.8789452 16.0640494,12.8648215 16.4552239,12.531448 C16.846144,12.1986339 16.9319898,12.0004836 17.0646766,11.74486 C17.1973632,11.4903551 17.2918332,11.1698467 17.4129353,10.8708733 C17.6551395,10.2726469 17.8629288,9.62967231 18.1094527,8.94810251 C18.3559753,8.26653271 18.5989122,7.58761983 18.8059701,7.11273041 C18.8749811,6.95331523 18.9273035,6.86381899 18.9800995,6.76313572 C19.0791443,6.76313572 19.1110448,6.8365506 19.2412935,6.85053439 C19.7485421,6.90646954 20.4518101,6.98687632 21.1567164,7.11273041 C21.8616227,7.23578773 22.6133126,7.37562561 23.2462687,7.46232509 C23.5627467,7.50427645 23.8305102,7.53853673 24.1169154,7.54972376 C24.4033206,7.54972376 24.5920824,7.63852081 25.0746269,7.46232509 C25.5572911,7.28333261 25.7337803,7.04518871 25.9452736,6.85053439 C26.1567642,6.65476137 26.3398535,6.47758678 26.5547264,6.23874369 C26.984472,5.76049816 27.486129,5.22016461 27.9477612,4.6655676 C28.4093934,4.11069091 28.8993154,3.55371666 29.2537313,3.17979018 C29.3315184,3.09868421 29.3628617,3.0665215 29.4278607,3.00499284 Z M34.3905473,9.82208923 C33.6211954,9.94276161 33.0949629,10.6666614 33.2151741,11.4389647 C33.3353854,12.2112679 34.0565188,12.7395191 34.8258706,12.6188467 C47.1519944,12.6188467 57.1144279,22.6194922 57.1144279,34.9929067 C57.1144279,47.3663211 47.1519944,57.3669666 34.8258706,57.3669666 C22.4997413,57.3669666 12.5373132,47.3663211 12.5373134,34.9929067 C12.5444183,34.4886011 12.2804722,34.0195213 11.8465453,33.7652871 C11.4126183,33.511053 10.8759389,33.511053 10.4420119,33.7652871 C10.008085,34.0195213 9.7441389,34.4886011 9.75124378,34.9929067 C9.7512435,48.8776889 20.9940322,60.1637241 34.8258706,60.1637241 C48.6577091,60.1637241 59.9004975,48.8776889 59.9004975,34.9929067 C59.9004975,21.1081244 48.6577091,9.82208923 34.8258706,9.82208923 C34.6816593,9.79919083 34.5347586,9.79919083 34.3905473,9.82208923 Z M30.9950249,10.0842852 L29.60199,10.3464813 L29.5149254,10.3464813 L28.1218905,10.6960759 L28.818408,13.4054348 L30.1243781,13.0558401 L30.2114428,13.0558401 L31.4303483,12.8810427 L30.9950249,10.0842852 Z M25.3358209,11.6574613 L23.7686567,12.3566507 L23.5945274,12.4440494 L22.7238806,12.9684414 L24.0298507,15.4156042 L24.9004975,14.9786109 L24.9875622,14.8912122 L26.4676617,14.1920228 L25.3358209,11.6574613 Z M20.199005,14.4542188 L20.1119403,14.5416175 L18.6318408,15.7651989 L18.5447761,15.8525976 L17.9353234,16.3769896 L19.7636816,18.4745577 L20.3731343,17.9501657 L20.460199,17.862767 L21.7661692,16.813983 L21.8532338,16.7265843 L21.1567164,15.8525976 L20.9825871,15.6778002 L20.199005,14.4542188 Z M33.4328358,15.4156042 L33.4328358,18.2123617 L36.2189055,18.2123617 L36.2189055,15.4156042 L33.4328358,15.4156042 Z M15.8457711,18.4745577 L15.7587065,18.6493551 L15.6716418,18.7367537 L14.4527363,20.2225311 L14.4527363,20.3099298 L14.0174129,20.9217205 L16.3681592,22.4074979 L16.7164179,21.9705046 L16.7164179,21.8831059 L17.761194,20.5721258 L17.8482587,20.4847272 L17.9353234,20.3973285 L15.8457711,18.4745577 Z M12.5373134,23.3688833 L12.3631841,23.8058767 L12.2761194,23.8932754 L11.4925373,25.6412488 L11.4925373,25.7286475 L11.318408,26.1656408 L14.0174129,27.0396275 L14.1044776,26.7774315 L14.1044776,26.6900328 L14.800995,25.1168568 L14.8880597,25.0294581 L15.0621891,24.6798634 L12.5373134,23.3688833 Z M33.4328358,23.8058767 L33.4328358,31.0599664 C31.8029349,31.6338163 30.6467662,33.1718092 30.6467662,34.9929067 C30.6467662,37.2932397 32.5343395,39.1880429 34.8258706,39.1880429 C37.1174018,39.1880429 39.0049751,37.2932397 39.0049751,34.9929067 C39.0049751,34.4178234 38.8694802,33.9208536 38.6567164,33.4197306 C38.6460792,33.3946744 38.6678245,33.3571419 38.6567164,33.3323319 L47.6243781,26.6026342 L45.9701493,24.3302687 L36.7412935,31.3221624 C36.5696577,31.2330717 36.4030034,31.1247841 36.2189055,31.0599664 L36.2189055,23.8058767 L33.4328358,23.8058767 Z M10.5348259,28.9623983 L10.2736318,29.6615877 L10.2736318,29.836385 L9.92537313,31.7591558 L12.7114428,32.2835478 L13.0597015,30.2733784 L13.2338308,29.6615877 L10.5348259,28.9623983 Z M15.3233831,33.5945279 L15.3233831,36.3912854 L18.1094527,36.3912854 L18.1094527,33.5945279 L15.3233831,33.5945279 Z M34.8258706,33.5945279 C35.2188096,33.5945279 35.5335574,33.7805458 35.7835821,34.0315213 L36.1318408,34.5559133 C36.1811793,34.7014649 36.2189055,34.827649 36.2189055,34.9929067 C36.2189055,35.7818719 35.6117485,36.3912854 34.8258706,36.3912854 C34.0399928,36.3912854 33.4328358,35.7818719 33.4328358,34.9929067 C33.4328358,34.2039414 34.0399928,33.5945279 34.8258706,33.5945279 Z M51.5422886,33.5945279 L51.5422886,36.3912854 L54.3283582,36.3912854 L54.3283582,33.5945279 L51.5422886,33.5945279 Z M33.4328358,51.7734516 L33.4328358,54.5702091 L36.2189055,54.5702091 L36.2189055,51.7734516 L33.4328358,51.7734516 Z M24.2039801,65.232847 C24.3038328,65.3307335 24.4031284,65.5039927 24.5522388,65.6698404 C24.9160354,66.0745312 25.3033047,66.5934696 25.7711443,67.1556178 C26.074433,67.5200437 26.3411546,67.8713975 26.641791,68.2044019 L21.6791045,76.8568704 L20.5472637,72.4869368 C20.4461971,72.1257945 20.2048388,71.8205495 19.8774068,71.639771 C19.5499748,71.4589926 19.163922,71.4178377 18.8059701,71.5255514 L14.539801,72.6617341 L18.3706468,65.9320364 C18.4524291,65.9416824 18.5534101,66.0177822 18.6318408,66.0194351 C18.9373027,66.0194351 19.2672848,65.9655975 19.5895522,65.9320364 C20.23409,65.8621175 20.8774882,65.7082958 21.5920398,65.5824417 C22.3065914,65.4565876 23.0602038,65.3929614 23.5945274,65.3202457 C23.8616836,65.2838879 24.0672621,65.2384405 24.2039801,65.232847 Z M45.7960199,65.232847 C45.9327323,65.232847 46.1383108,65.2838879 46.4054726,65.3202457 C46.9397962,65.3929614 47.6063439,65.4565876 48.3208955,65.5824417 C49.0354472,65.7082958 49.76591,65.8621175 50.4104478,65.9320364 C50.7327152,65.9683943 51.0626973,66.0278254 51.3681592,66.0194351 C51.584088,66.0194351 51.8594854,65.9655975 52.1517413,65.8446377 L56.0696517,72.6617341 L51.7164179,71.5255514 C51.3584661,71.4178377 50.9724132,71.4589926 50.6449812,71.639771 C50.3175492,71.8205495 50.0761909,72.1257945 49.9751244,72.4869368 L48.8432836,76.8568704 L43.619403,67.7674085 C43.7989763,67.5616287 43.962722,67.3707836 44.141791,67.1556178 C44.6096306,66.5934696 45.0839646,66.0745312 45.4477612,65.6698404 C45.5968716,65.5048317 45.6961672,65.3298945 45.7960199,65.232847 Z" id="Shape" fill="url(#linearGradient-1)" fill-rule="nonzero"></path>
                <path d="M54,34.5 C54,45.2695714 45.2695519,54 34.5,54 C23.7304481,54 15,45.2695714 15,34.5 C15,23.7304286 23.7304481,15 34.5,15 C45.2695519,15 54,23.7304286 54,34.5 Z" id="Path"></path>
            </g>
        </g>
    </g>
</svg>