<?xml version="1.0" encoding="UTF-8"?>
<svg width="21px" height="20px" viewBox="0 0 21 20" version="1.1" xmlns="http://www.w3.org/2000/svg" xmlns:xlink="http://www.w3.org/1999/xlink">
    <!-- Generator: Sketch 52.2 (67145) - http://www.bohemiancoding.com/sketch -->
    <title>Path</title>
    <desc>Created with Sketch.</desc>
    <g id="Landing-flow" stroke="none" stroke-width="1" fill="none" fill-rule="evenodd">
        <g id="Cookies-consent" transform="translate(-48.000000, -709.000000)" fill="#121212">
            <g id="Group-2" transform="translate(26.000000, 694.000000)">
                <g id="433504" transform="translate(22.000000, 15.000000)">
                    <path d="M7.814921,20 C7.13043755,20 6.48214517,19.7099767 6.06673453,19.2099366 L0.444529042,12.4651092 C0.0934748309,12.0444256 -0.0590006881,11.5142924 0.0206870058,10.9914775 C0.1003747,10.4686627 0.405688996,9.99605167 0.869380842,9.67774257 C1.33291923,9.3581 1.91752113,9.21912326 2.49410708,9.29149828 C3.07069302,9.36387331 3.59183863,9.64164721 3.94247553,10.0634878 L7.64183323,14.4981296 L16.9429406,0.937040707 C17.585203,0.00476854134 18.9373569,-0.279626438 19.9656825,0.301275371 C20.9931944,0.881321948 21.309473,2.10999204 20.6674747,3.04435278 L9.67797482,19.0599245 C9.29710408,19.6174714 8.63752114,19.9682381 7.91562662,19.9971426 C7.88100906,20 7.84953856,20 7.814921,20 Z" id="Path"></path>
                </g>
            </g>
        </g>
    </g>
</svg>