<?xml version="1.0" encoding="UTF-8"?>
<svg width="75px" height="75px" viewBox="0 0 75 75" version="1.1" xmlns="http://www.w3.org/2000/svg" xmlns:xlink="http://www.w3.org/1999/xlink">
    <!-- Generator: Sketch 52.2 (67145) - http://www.bohemiancoding.com/sketch -->
    <title>1201772</title>
    <desc>Created with Sketch.</desc>
    <g id="Main-flow" stroke="none" stroke-width="1" fill="none" fill-rule="evenodd">
        <g id="Sidebar-Unauhorized" transform="translate(-34.000000, -30.000000)">
            <g id="Profile" transform="translate(34.000000, 30.000000)">
                <g id="1201772">
                    <path d="M75,37.5 C75,46.171875 72.0703125,54.140625 67.03125,60.5859375 C60.234375,69.375 49.5703125,75 37.5,75 C25.4296875,75 14.765625,69.375 7.96875,60.5859375 C2.9296875,54.140625 0,46.171875 0,37.5 C0,16.7578125 16.7578125,0 37.5,0 C58.2421875,0 75,16.7578125 75,37.5 Z" id="Path" fill="#2395C4"></path>
                    <circle id="Oval" fill="#D39473" cx="37.5" cy="27.5" r="17.5"></circle>
                    <rect id="Rectangle" fill="#47677C" x="22" y="27" width="4" height="6"></rect>
                    <rect id="Rectangle" fill="#47677C" x="49" y="27" width="4" height="6"></rect>
                    <path d="M67,60.6233766 C60.1069307,69.3896104 49.4752475,75 37.4415842,75 C25.4079208,75 14.7762376,69.3896104 8,60.6233766 C8.81782178,56.4155844 12.0891089,53.025974 16.4118812,52.2077922 L30.4316832,49.4025974 L37.5584158,48 L44.6851485,49.4025974 L58.7049505,52.2077922 C62.9108911,53.025974 66.1821782,56.4155844 67,60.6233766 Z" id="Path" fill="#324A5E"></path>
                    <path d="M45,43 L45,47.9142857 C45,51.8 41.6129032,55 37.5,55 C33.3870968,55 30,51.8 30,47.9142857 L30,43 L45,43 Z" id="Path" fill="#EDC3A6"></path>
                    <path d="M50,25.322314 L50,35.8512397 C50,42.5619835 44.4047619,48 37.5,48 C30.5952381,48 25,42.5619835 25,35.8512397 L25,26.1322314 C28.0952381,26.0165289 36.6666667,25.2066116 40.4761905,20.4628099 C40.5952381,20.3471074 40.7142857,20.231405 40.8333333,20 C40.8333333,20 40.952381,20.1157025 41.0714286,20.4628099 C42.0238095,21.5041322 45,24.8595041 50,25.322314 Z" id="Path" fill="#FCD5BB"></path>
                    <path d="M50,27 L50,32.4339623 L48.9615385,32.4339623 L48.9615385,33 L40.4230769,33 C40.1923077,33 40.0769231,32.8867925 39.9615385,32.7735849 L38.5769231,31.4150943 C38.4615385,31.3018868 38.2307692,31.1886792 38,31.1886792 C37.7692308,31.1886792 37.5384615,31.3018868 37.4230769,31.4150943 L36.0384615,32.7735849 C35.9230769,32.8867925 35.6923077,33 35.5769231,33 L27.0384615,33 L27.0384615,32.4339623 L26,32.4339623 L26,27 L50,27 Z" id="Path" fill="#324A5E"></path>
                </g>
            </g>
        </g>
    </g>
</svg>