<?xml version="1.0" encoding="UTF-8"?>
<svg width="11px" height="15px" viewBox="0 0 11 15" version="1.1" xmlns="http://www.w3.org/2000/svg" xmlns:xlink="http://www.w3.org/1999/xlink">
    <!-- Generator: Sketch 52.2 (67145) - http://www.bohemiancoding.com/sketch -->
    <title>Shape</title>
    <desc>Created with Sketch.</desc>
    <g id="Main-flow" stroke="none" stroke-width="1" fill="none" fill-rule="evenodd">
        <g id="Sidebar" transform="translate(-38.000000, -493.000000)" fill="#757575" fill-rule="nonzero">
            <g id="Group-5" transform="translate(35.000000, 322.000000)">
                <g id="Group-Copy" transform="translate(1.000000, 166.000000)">
                    <g id="458906" transform="translate(2.000000, 5.000000)">
                        <path d="M11,12.3913043 L11,1.30434783 C11,0.586956522 10.38125,0 9.625,0 L1.375,0 C0.61875,0 0,0.586956522 0,1.30434783 L0,13.6956522 C0,14.4130435 0.61875,15 1.375,15 L9.625,15 C10.2636875,15 11,15 11,14.3478261 L11,14.0217391 L1.71875,14.0217391 C1.340625,14.0217391 1.03125,13.7282609 1.03125,13.3695652 L1.03125,12.3913043 L11,12.3913043 Z M1.71875,2.60869565 C1.71875,2.42934783 1.8734375,2.2826087 2.0625,2.2826087 L8.9375,2.2826087 C9.1265625,2.2826087 9.28125,2.42934783 9.28125,2.60869565 L9.28125,3.26086957 C9.28125,3.44021739 9.1265625,3.58695652 8.9375,3.58695652 L2.0625,3.58695652 C1.8734375,3.58695652 1.71875,3.44021739 1.71875,3.26086957 L1.71875,2.60869565 Z M1.71875,5.2173913 C1.71875,5.03804348 1.8734375,4.89130435 2.0625,4.89130435 L8.9375,4.89130435 C9.1265625,4.89130435 9.28125,5.03804348 9.28125,5.2173913 L9.28125,5.86956522 C9.28125,6.04891304 9.1265625,6.19565217 8.9375,6.19565217 L2.0625,6.19565217 C1.8734375,6.19565217 1.71875,6.04891304 1.71875,5.86956522 L1.71875,5.2173913 Z" id="Shape"></path>
                    </g>
                </g>
            </g>
        </g>
    </g>
</svg>